<?xml version="1.0" encoding="utf-8"?>
<!-- Generator: Adobe Illustrator 23.0.6, SVG Export Plug-In . SVG Version: 6.00 Build 0)  -->
<svg version="1.1" id="Layer_1" xmlns="http://www.w3.org/2000/svg" xmlns:xlink="http://www.w3.org/1999/xlink" x="0px" y="0px"
	 viewBox="0 0 560 315" style="enable-background:new 0 0 560 315;" xml:space="preserve">
<style type="text/css">
	.st0{fill:#1E1E1E;}
	.st1{opacity:0.19;}
	.st2{fill:#FFFFFF;}
</style>
<rect x="-0.41" y="0.25" class="st0" width="560" height="315"/>
<g class="st1">
	<path class="st2" d="M538.73,105.09c-7.51-5.59-14.31-11.79-20.95-18.16c-6.6-6.39-12.94-13.01-19.06-19.84
		c-6.12-6.82-12-13.85-17.63-21.11c-5.59-7.29-11.01-14.73-15.73-22.8c-0.11-0.18-0.05-0.42,0.14-0.53
		c0.14-0.08,0.31-0.07,0.43,0.02c7.46,5.63,14.23,11.87,20.81,18.28c6.55,6.43,12.85,13.1,18.91,19.97
		c6.06,6.87,11.9,13.94,17.48,21.24C528.69,89.5,534.06,96.98,538.73,105.09z"/>
</g>
<g class="st1">
	<path class="st2" d="M505.6,29.88c3.47,1.97,6.51,4.34,9.43,6.82c2.9,2.5,5.63,5.15,8.22,7.93c2.59,2.78,5.04,5.7,7.31,8.77
		c2.26,3.08,4.4,6.29,6.1,9.88c0.06,0.13,0.01,0.28-0.12,0.34c-0.08,0.04-0.17,0.03-0.24-0.01c-3.44-2-6.46-4.39-9.34-6.9
		c-2.87-2.53-5.57-5.2-8.13-8.02c-2.56-2.81-4.97-5.76-7.22-8.85C509.38,36.73,507.28,33.5,505.6,29.88z"/>
</g>
</svg>
